<?xml version="1.0" standalone="no"?>
<!DOCTYPE svg PUBLIC "-//W3C//DTD SVG 20010904//EN"
 "http://www.w3.org/TR/2001/REC-SVG-20010904/DTD/svg10.dtd">
<svg version="1.0" xmlns="http://www.w3.org/2000/svg"
 width="1400.000000pt" height="1400.000000pt" viewBox="0 0 1400.000000 1400.000000"
 preserveAspectRatio="xMidYMid meet">
<metadata>
Created by potrace 1.11, written by Peter Selinger 2001-2013
</metadata>
<g transform="translate(0.000000,1400.000000) scale(0.100000,-0.100000)"
fill="#000000" stroke="none">
<path d="M6307 11673 c4 -10 14 -29 24 -43 17 -24 52 -82 143 -234 23 -37 51
-84 64 -105 13 -20 25 -44 29 -53 3 -10 9 -18 13 -18 4 0 10 -8 13 -17 5 -16
116 -199 165 -273 9 -14 17 -27 17 -30 1 -6 50 -85 76 -122 10 -15 19 -31 19
-36 0 -5 7 -15 15 -22 8 -7 13 -16 10 -20 -3 -5 -2 -10 3 -12 10 -4 152 -236
152 -248 0 -4 3 -10 8 -12 7 -3 72 -106 72 -114 0 -3 13 -24 29 -47 16 -23 38
-58 48 -77 39 -68 123 -205 133 -217 5 -7 10 -14 10 -17 0 -3 27 -48 60 -101
33 -53 60 -99 60 -101 0 -3 13 -24 28 -47 15 -23 33 -51 39 -62 6 -11 60 -99
119 -195 59 -96 114 -188 123 -204 9 -17 19 -35 24 -40 26 -36 58 -89 60 -99
1 -6 7 -17 12 -24 25 -31 31 -41 54 -83 14 -25 32 -56 41 -70 47 -70 120 -193
120 -201 0 -5 4 -9 8 -9 4 0 13 -12 20 -27 6 -16 32 -59 57 -98 25 -38 50 -79
56 -90 5 -11 17 -32 27 -46 9 -15 33 -53 52 -85 19 -33 40 -66 45 -76 19 -32
80 -131 103 -167 13 -20 25 -44 29 -53 3 -10 9 -18 14 -18 5 0 9 -5 9 -11 0
-6 14 -30 30 -54 17 -24 30 -46 30 -48 0 -3 18 -34 39 -68 59 -96 314 -517
331 -547 9 -15 28 -46 43 -70 27 -42 27 -43 11 -77 -9 -19 -20 -35 -25 -35 -5
0 -9 -5 -9 -11 0 -6 -15 -34 -34 -62 -18 -29 -91 -144 -161 -257 -144 -231
-209 -332 -236 -372 -11 -15 -19 -32 -19 -38 0 -5 -4 -10 -9 -10 -5 0 -11 -8
-15 -17 -3 -10 -14 -30 -23 -45 -106 -165 -183 -290 -183 -297 0 -5 -4 -11 -9
-13 -5 -1 -17 -18 -27 -35 -11 -18 -75 -121 -143 -229 -68 -107 -130 -209
-138 -225 -8 -16 -18 -29 -23 -29 -4 0 -11 -11 -14 -25 -4 -14 -11 -25 -16
-25 -6 0 -10 -7 -10 -15 0 -8 -4 -15 -10 -15 -5 0 -10 -5 -10 -11 0 -6 -25
-49 -55 -95 -30 -47 -55 -86 -55 -88 0 -4 -32 -53 -80 -126 -37 -57 -58 -90
-75 -122 -11 -21 -23 -38 -27 -38 -5 0 -8 -4 -8 -9 0 -5 -20 -40 -45 -78 -25
-37 -44 -72 -42 -77 2 -5 240 -9 561 -9 466 0 560 2 567 14 70 110 146 233
154 249 5 11 13 20 17 20 5 0 8 7 8 15 0 8 5 15 10 15 6 0 9 3 8 8 -1 4 15 33
36 66 51 79 137 216 188 301 23 39 45 72 50 73 4 2 8 10 8 18 0 8 4 14 9 14 5
0 11 8 14 18 6 17 37 73 47 82 3 3 66 102 139 220 73 118 144 231 156 250 13
19 59 92 102 162 l80 127 39 -64 c21 -36 50 -84 62 -108 13 -23 28 -45 34 -48
5 -3 9 -9 9 -13 -1 -3 14 -31 34 -61 19 -31 35 -58 35 -60 0 -3 27 -48 59 -99
33 -52 57 -96 55 -99 -2 -2 5 -12 16 -22 11 -10 20 -21 20 -26 0 -4 18 -36 39
-70 22 -35 72 -118 111 -184 40 -66 83 -136 95 -155 13 -19 70 -114 129 -210
58 -96 110 -180 116 -187 5 -7 10 -15 10 -18 0 -3 23 -41 50 -85 28 -44 50
-84 50 -90 0 -5 5 -10 10 -10 6 0 10 -7 10 -15 0 -8 5 -15 10 -15 6 0 10 -4
10 -9 0 -9 172 -297 190 -318 5 -7 10 -15 10 -17 0 -3 16 -30 35 -60 19 -30
35 -60 35 -66 0 -5 3 -10 8 -10 4 0 20 -25 36 -55 16 -30 32 -55 36 -55 4 0
11 -11 14 -25 4 -14 7 -28 9 -32 3 -9 -178 -7 -192 1 -6 4 -11 4 -11 -1 0 -4
-34 -8 -75 -8 -41 0 -75 4 -75 8 0 4 -8 4 -17 -1 -10 -4 -2409 -8 -5330 -7
l-5313 0 0 -570 0 -570 5860 1 5859 0 73 -119 c40 -66 110 -181 156 -255 45
-74 82 -139 82 -143 0 -5 5 -9 11 -9 5 0 7 -4 4 -10 -3 -5 -3 -10 2 -10 7 0
44 -54 48 -70 1 -3 10 -20 21 -37 16 -28 25 -33 59 -33 273 -3 1088 -1 1092 3
2 3 -16 38 -41 77 -25 39 -46 75 -46 80 0 6 -4 10 -9 10 -5 0 -11 8 -14 17 -3
10 -33 61 -67 113 -33 52 -63 102 -67 110 -3 8 -16 28 -27 45 -24 34 -42 63
-52 85 -4 8 -10 17 -13 20 -10 8 -42 64 -48 82 -3 10 -9 18 -14 18 -5 0 -9 6
-9 14 0 12 27 14 153 14 83 0 161 0 172 1 20 1 20 8 20 450 0 352 2 447 12
439 7 -5 17 -7 22 -4 5 4 12 2 16 -4 4 -6 11 -7 18 -3 16 10 58 10 63 1 3 -5
10 -6 15 -2 15 9 132 9 147 0 6 -4 18 -4 25 1 16 10 66 11 94 1 12 -4 25 -4
27 1 3 4 22 6 43 4 36 -3 38 -2 38 27 0 16 -2 30 -5 31 -3 0 -59 2 -125 3 -66
2 -124 4 -130 5 -23 4 -48 32 -60 68 -11 32 -11 42 1 65 8 15 20 30 26 35 7 4
76 10 153 13 148 5 142 3 136 50 -1 13 -245 13 -290 0 -41 -11 -81 -53 -82
-86 -1 -13 -2 -30 -2 -36 -1 -22 14 -78 21 -78 4 0 13 -9 19 -20 12 -19 10
-19 -75 -18 -49 1 -93 -1 -98 -5 -7 -4 -10 25 -9 81 1 48 0 94 -2 102 -4 14
-66 16 -530 15 l-525 0 -19 35 c-11 19 -43 73 -72 120 -110 177 -137 222 -137
231 0 5 -3 9 -8 9 -4 0 -18 20 -32 45 -14 25 -27 45 -30 45 -3 0 -11 15 -19
32 -8 18 -17 35 -21 38 -3 3 -26 39 -50 80 -43 72 -81 133 -97 156 -5 5 -15
23 -24 40 -9 16 -62 103 -118 192 -55 90 -101 167 -101 172 0 5 -3 10 -8 12
-4 2 -33 46 -65 98 -32 52 -88 145 -126 205 -37 61 -74 121 -82 134 -8 14 -18
30 -22 35 -5 6 -18 28 -30 48 -62 106 -111 183 -119 186 -4 2 -6 8 -2 13 3 5
0 9 -5 9 -6 0 -11 5 -11 11 0 5 -18 37 -40 70 -23 32 -37 59 -33 59 4 0 3 4
-3 8 -11 7 -44 60 -148 232 -28 47 -54 87 -58 88 -5 2 -8 8 -8 13 0 4 -31 58
-70 120 -38 61 -70 114 -70 118 0 5 -9 16 -20 26 -10 9 -18 20 -17 24 1 3 -14
31 -34 61 -19 30 -53 84 -74 120 -21 36 -42 67 -45 70 -3 3 -14 21 -23 41 -9
20 -23 42 -32 49 -8 7 -15 18 -15 25 0 8 -3 15 -7 17 -5 2 -20 25 -35 52 l-26
50 41 65 c23 36 45 68 49 69 4 2 8 8 8 13 0 8 148 251 167 274 5 6 34 53 66
105 103 168 315 505 326 517 6 7 11 14 11 17 0 3 21 38 47 78 26 40 56 89 67
108 10 19 22 37 26 40 4 3 15 19 24 35 9 17 25 44 36 60 11 17 27 44 36 60 9
17 28 44 40 61 13 17 24 33 24 36 0 4 45 76 100 163 55 86 100 160 100 165 0
6 5 10 10 10 6 0 10 4 10 10 0 5 45 79 100 165 55 87 100 160 100 165 0 4 7
14 16 21 14 12 14 14 0 19 -8 3 -262 5 -563 5 l-548 0 -30 -47 c-16 -26 -57
-90 -90 -143 -33 -53 -83 -131 -111 -175 -28 -44 -49 -82 -46 -85 3 -3 0 -5
-6 -5 -7 0 -12 -5 -12 -10 0 -6 -5 -16 -10 -23 -24 -29 -120 -183 -120 -194 0
-6 -3 -13 -7 -15 -8 -3 -62 -81 -73 -103 -3 -6 -56 -92 -118 -190 -63 -99
-119 -189 -125 -199 -7 -11 -30 -48 -52 -82 -22 -34 -57 -90 -78 -123 -21 -34
-42 -59 -47 -56 -5 3 -27 38 -50 78 -22 39 -54 95 -71 122 -16 28 -32 58 -36
68 -3 9 -9 17 -14 17 -5 0 -9 4 -9 9 0 5 -22 46 -50 91 -27 45 -50 84 -50 86
0 3 -18 32 -40 64 -22 32 -40 61 -40 64 0 2 -23 41 -50 85 -28 44 -50 85 -50
91 0 5 -4 10 -10 10 -5 0 -10 7 -10 15 0 8 -4 15 -10 15 -5 0 -10 4 -10 9 0 5
-29 56 -63 114 -35 57 -67 111 -70 118 -4 8 -65 110 -137 228 -71 117 -130
218 -130 222 0 5 -4 9 -10 9 -5 0 -10 4 -10 9 0 5 -65 117 -145 248 -79 131
-164 271 -187 311 -24 40 -52 88 -63 107 -16 27 -147 244 -212 350 -7 11 -15
27 -19 35 -5 8 -22 38 -40 66 -18 28 -41 66 -52 85 -11 19 -56 94 -101 168
-44 74 -81 138 -81 143 0 4 -3 8 -8 8 -4 0 -13 15 -21 33 -8 17 -17 34 -21 37
-3 3 -33 50 -65 104 -61 101 -75 125 -155 260 l-45 76 -567 0 c-536 0 -567 -1
-561 -17z"/>
<path d="M137 10312 c-83 -2 -117 -6 -118 -15 -3 -74 0 -5497 4 -5503 3 -5
200 -9 439 -9 l433 0 3 678 2 677 58 0 c87 1 1168 1 1327 0 l140 0 19 -33 c10
-17 29 -52 43 -77 13 -25 35 -63 48 -85 14 -22 32 -56 42 -75 9 -19 19 -37 22
-40 6 -5 16 -22 58 -99 14 -25 50 -87 79 -138 30 -50 64 -111 77 -135 40 -74
79 -143 87 -153 4 -5 24 -41 45 -80 21 -38 43 -77 49 -85 7 -8 21 -33 33 -55
11 -22 31 -56 42 -75 12 -19 28 -48 37 -65 8 -16 26 -48 39 -70 14 -22 29 -50
34 -62 5 -11 15 -24 22 -29 14 -9 1007 -10 1016 -1 3 4 -2 17 -10 31 -9 14
-26 42 -38 63 -65 117 -144 249 -152 254 -5 3 -9 10 -9 15 0 8 -12 29 -71 129
-10 16 -20 38 -23 48 -4 9 -10 17 -15 17 -5 0 -9 4 -9 10 0 5 -19 42 -43 82
-24 40 -46 80 -50 88 -4 8 -13 24 -20 35 -7 11 -35 58 -62 105 -28 47 -54 92
-60 102 -5 9 -17 29 -26 45 -21 37 -48 85 -93 160 -20 34 -36 66 -36 72 0 6
-4 11 -10 11 -5 0 -18 19 -29 43 -12 23 -35 65 -51 92 -17 28 -33 57 -37 65
-3 8 -13 23 -21 32 -12 14 -12 21 -2 32 6 9 15 15 18 14 12 -3 140 60 147 72
3 6 11 8 16 5 5 -4 9 -1 9 4 0 6 5 11 12 11 6 0 26 11 45 26 18 14 33 22 33
19 0 -3 12 6 27 20 15 14 31 25 34 25 3 0 15 8 27 18 11 9 34 27 49 39 99 76
222 201 310 315 53 68 138 195 142 213 1 6 8 17 16 25 13 15 125 242 129 263
2 7 8 26 15 42 14 33 62 181 66 205 2 8 4 15 5 15 2 0 7 22 15 60 3 17 8 38
11 47 6 21 13 58 29 168 27 178 28 564 1 705 -2 11 -7 45 -12 75 -8 58 -10 68
-14 73 -2 3 -6 22 -13 62 -11 69 -102 318 -147 406 -4 8 -21 40 -36 70 -15 30
-35 65 -44 79 -9 14 -30 45 -46 70 -83 129 -220 282 -349 389 -44 36 -81 69
-83 74 -2 4 -9 7 -16 7 -7 0 -21 9 -31 20 -10 11 -21 20 -26 20 -4 0 -31 16
-60 36 -110 74 -377 189 -483 208 -14 3 -29 7 -34 10 -5 3 -22 8 -38 10 -16 3
-40 8 -54 11 -165 33 -341 52 -551 60 -216 8 -266 8 -278 1 -6 -4 -11 -4 -11
1 0 9 -335 7 -350 -2 -6 -3 -10 -3 -10 2 0 10 -93 8 -109 -1 -6 -4 -11 -4 -11
1 0 9 -335 7 -350 -2 -6 -3 -10 -3 -10 2 0 10 -93 8 -109 -1 -6 -4 -11 -4 -11
1 0 9 -335 7 -350 -2 -6 -3 -10 -3 -10 2 0 10 -93 8 -109 -1 -6 -4 -11 -4 -11
1 0 9 -335 7 -350 -2 -6 -3 -10 -3 -10 2 0 9 -93 9 -108 -1 -6 -3 -12 -3 -14
1 -1 5 -56 7 -121 5z m2463 -866 c19 -4 53 -9 75 -11 22 -2 51 -6 65 -9 14 -3
39 -8 55 -12 105 -20 285 -100 368 -164 66 -50 158 -134 188 -170 19 -23 40
-48 47 -55 6 -8 12 -18 12 -23 0 -6 3 -12 8 -14 34 -15 156 -276 176 -378 3
-14 7 -35 10 -46 4 -21 13 -73 21 -124 6 -34 6 -289 1 -320 -3 -14 -7 -51 -10
-83 -3 -31 -7 -61 -10 -65 -3 -5 -7 -22 -10 -38 -3 -16 -8 -44 -11 -63 -3 -19
-10 -42 -16 -52 -5 -11 -8 -19 -5 -19 13 0 -90 -228 -109 -242 -5 -4 -7 -8 -2
-8 8 0 -43 -78 -91 -140 -49 -64 -162 -167 -234 -216 -159 -106 -382 -179
-585 -190 -53 -3 -100 -7 -105 -10 -4 -3 -8 0 -8 6 0 6 -5 8 -11 5 -16 -11
-69 -12 -75 -3 -3 5 -10 6 -15 2 -14 -8 -184 -9 -197 0 -7 4 -12 1 -13 -6 0
-10 -2 -10 -6 0 -2 6 -9 9 -15 6 -15 -9 -69 -11 -74 -3 -3 5 -11 6 -18 3 -19
-7 -146 -10 -146 -4 0 3 -9 6 -20 6 -11 0 -20 -3 -20 -6 0 -3 -16 -5 -35 -5
-19 0 -35 3 -35 7 0 4 -7 5 -15 2 -20 -8 -115 -11 -115 -4 0 3 -9 6 -20 6 -11
0 -20 -3 -20 -6 0 -3 -16 -5 -35 -5 -19 0 -35 3 -35 7 0 4 -7 5 -15 2 -20 -8
-115 -11 -115 -4 0 3 -9 6 -20 6 -11 0 -20 -3 -20 -6 0 -3 -16 -5 -35 -5 -19
0 -35 3 -35 7 0 4 -7 5 -15 2 -20 -8 -115 -11 -115 -4 0 3 -9 6 -20 6 -11 0
-20 -3 -20 -6 0 -3 -16 -5 -35 -5 -19 0 -35 3 -35 7 0 4 -12 3 -27 0 -16 -4
-35 -7 -43 -6 -8 1 -27 2 -42 3 l-26 1 0 1231 0 1231 837 -5 c460 -3 852 -8
871 -11z"/>
<path d="M5930 9484 c-58 -8 -141 -21 -185 -30 -44 -9 -84 -17 -90 -18 -5 -1
-16 -5 -22 -9 -7 -5 -13 -6 -13 -2 0 3 -16 -2 -36 -10 -20 -8 -40 -13 -44 -10
-5 3 -11 1 -15 -5 -3 -5 -12 -10 -20 -10 -8 0 -26 -5 -42 -12 -15 -6 -32 -12
-38 -14 -5 -1 -23 -8 -40 -15 -16 -7 -32 -13 -35 -14 -79 -26 -344 -167 -377
-200 -7 -8 -22 -17 -33 -20 -11 -3 -20 -11 -20 -16 0 -5 -4 -9 -10 -9 -9 0
-42 -25 -76 -57 -7 -7 -16 -13 -19 -13 -7 0 -43 -32 -152 -136 -81 -77 -76
-64 -59 -159 2 -11 7 -38 11 -60 3 -22 8 -51 11 -65 22 -125 21 -484 -1 -620
-5 -32 -15 -101 -20 -139 -2 -17 -6 -39 -10 -50 -3 -11 -8 -30 -11 -43 -2 -13
-7 -36 -10 -53 -4 -16 -7 -37 -9 -45 -1 -8 -10 -42 -20 -75 -11 -33 -20 -62
-20 -65 -1 -3 -5 -14 -10 -25 -4 -11 -19 -49 -32 -85 -31 -80 -103 -230 -121
-248 -7 -8 -10 -17 -7 -22 3 -5 2 -10 -2 -12 -5 -1 -35 -43 -67 -93 -59 -90
-127 -178 -206 -265 -35 -39 -36 -50 -12 -129 13 -42 28 -84 33 -93 5 -10 9
-24 9 -31 0 -18 63 -175 108 -267 34 -71 137 -253 155 -275 4 -5 30 -41 58
-79 104 -145 312 -361 427 -444 14 -9 45 -33 71 -52 108 -83 423 -256 442
-244 5 3 9 2 9 -3 0 -4 15 -13 33 -19 96 -34 224 -76 237 -79 8 -2 47 -11 85
-20 71 -16 79 -17 170 -30 28 -3 61 -9 75 -11 47 -10 375 -12 445 -3 39 5 88
11 110 13 22 2 40 5 40 6 0 1 11 3 25 6 55 9 76 13 101 18 35 8 200 55 219 63
8 3 17 7 20 8 57 14 345 149 368 172 7 7 20 13 28 13 8 0 14 4 14 9 0 5 14 14
30 21 17 7 30 16 30 21 0 5 5 9 10 9 12 0 123 80 128 92 2 4 8 8 13 8 5 0 17
8 27 18 10 9 44 39 76 66 212 183 411 446 548 726 40 82 119 280 112 280 -3 0
0 9 6 21 6 11 13 28 15 37 1 9 10 44 19 77 75 272 97 597 62 885 -12 100 -19
136 -26 144 -5 5 -6 14 -3 21 2 7 -7 58 -22 112 -15 54 -28 106 -30 115 -2 9
-8 25 -13 35 -6 10 -11 21 -11 25 -11 61 -119 300 -178 395 -18 29 -33 57 -33
63 0 5 -4 10 -10 10 -5 0 -10 6 -10 13 0 11 -87 133 -147 206 -90 109 -240
255 -356 344 -15 12 -33 27 -40 32 -111 95 -513 300 -652 332 -32 7 -132 35
-145 40 -8 3 -24 7 -35 9 -11 1 -33 5 -50 9 -16 3 -59 10 -95 16 -36 5 -76 12
-90 15 -58 13 -447 12 -550 -2z m222 -849 c9 9 68 13 68 4 0 -7 7 -7 45 1 6 1
12 2 15 1 3 -1 25 -4 50 -6 82 -7 170 -21 205 -32 22 -8 19 -7 60 -17 17 -4
37 -10 45 -12 8 -3 17 -6 20 -7 3 0 16 -6 29 -13 14 -7 28 -11 33 -8 4 3 8 2
8 -3 0 -4 12 -13 28 -20 77 -33 102 -46 163 -85 37 -24 84 -56 105 -73 48 -37
244 -234 244 -245 0 -5 6 -15 13 -22 36 -37 130 -209 177 -323 24 -57 64 -210
75 -285 22 -142 22 -348 0 -485 -21 -136 -49 -236 -96 -350 -7 -16 -13 -32
-14 -35 -2 -8 -40 -82 -70 -135 -28 -51 -105 -163 -128 -187 -6 -7 -24 -27
-38 -44 -47 -58 -173 -166 -261 -225 -49 -32 -88 -56 -88 -54 0 3 -21 -8 -47
-23 -51 -30 -223 -96 -223 -86 0 4 -7 1 -15 -6 -8 -7 -15 -10 -15 -7 0 3 -15
1 -32 -4 -34 -10 -50 -13 -128 -25 -65 -10 -267 -11 -325 -2 -27 4 -65 10 -82
13 -31 5 -67 13 -143 33 -255 68 -540 276 -699 511 -14 20 -27 38 -30 41 -34
30 -167 328 -186 420 -2 8 -4 17 -5 20 -1 3 -3 10 -4 15 -4 22 -19 101 -23
120 -18 85 -24 345 -9 445 19 131 18 129 35 190 19 70 34 114 43 125 4 5 8 15
8 23 0 7 12 39 27 70 15 31 26 60 25 64 -1 3 5 12 13 18 8 7 15 19 15 26 0 8
5 14 12 14 6 0 9 3 5 6 -5 5 12 32 87 138 24 34 32 44 106 121 140 148 309
258 498 325 99 35 237 68 312 74 28 2 54 6 57 10 3 3 11 1 18 -4 7 -5 14 -8
17 -5z"/>
<path d="M13895 4133 c-14 -4 -11 -1123 3 -1132 5 -3 30 -6 54 -5 l43 0 0 569
0 570 -45 1 c-25 0 -49 -1 -55 -3z"/>
<path d="M13447 3756 c-37 -11 -78 -48 -86 -76 -13 -51 14 -150 42 -150 4 0 5
-5 2 -10 -4 -6 -14 -9 -22 -8 -16 3 -26 -24 -17 -46 6 -17 351 -19 361 -3 11
19 11 47 -1 48 -6 0 -63 2 -126 3 -71 1 -125 7 -142 15 -42 21 -61 86 -38 133
15 33 45 38 205 41 117 2 124 6 102 51 -7 14 -11 15 -17 6 -5 -9 -9 -9 -14 -1
-5 7 -13 8 -25 1 -10 -5 -21 -7 -24 -3 -9 9 -127 9 -127 0 0 -4 -8 -4 -17 1
-11 5 -33 4 -56 -2z"/>
<path d="M13369 3368 c-6 -14 -3 -68 3 -68 5 0 28 -8 51 -18 23 -10 81 -34
130 -52 48 -18 87 -36 87 -39 0 -3 -21 -14 -48 -25 -26 -10 -63 -25 -82 -33
-19 -8 -59 -24 -89 -36 -37 -15 -55 -28 -57 -42 -5 -30 4 -48 18 -38 7 4 15 8
18 9 8 1 42 15 90 36 25 11 54 23 65 28 11 4 34 13 50 21 17 7 32 13 35 14 9
3 44 16 68 26 13 5 29 6 35 2 7 -4 14 -8 17 -8 37 -5 55 -22 51 -47 0 -5 3 -8
8 -8 4 0 8 -10 7 -22 -1 -17 5 -23 19 -23 27 -1 33 11 28 54 -9 63 -11 65
-138 122 -41 18 -320 130 -330 132 -5 2 -16 6 -22 10 -7 5 -14 7 -14 5z"/>
</g>
</svg>
