<?xml version="1.0" encoding="utf-8"?>
<!-- Generator: Adobe Illustrator 22.1.0, SVG Export Plug-In . SVG Version: 6.00 Build 0)  -->
<svg version="1.1" id="marca" xmlns="http://www.w3.org/2000/svg" xmlns:xlink="http://www.w3.org/1999/xlink" x="0px" y="0px"
	 viewBox="0 0 204.6 137.3" style="enable-background:new 0 0 204.6 137.3;" xml:space="preserve">
<style type="text/css">
	.st0{fill:#B1B1B1;}
	.st1{font-family:'MuseoSans-900';}
	.st2{font-size:9.8877px;}
	.st3{fill:#5E354C;}
	.st4{fill:none;stroke:#FFFFFF;stroke-width:3;stroke-miterlimit:10;}
	.st5{fill:url(#SVGID_1_);}
	.st6{fill:url(#SVGID_2_);}
</style>
<g>
	<g>
		<path class="st0" d="M0,110.5v16.7h193.1v-16.7H0z"/>
	</g>
	<rect x="202.9" y="110.5" class="st0" width="1.7" height="16.7"/>
	<text transform="matrix(0 -1 1 0 200.6738 127.2158)" class="st0 st1 st2">ynh</text>
	<path class="st3" d="M149,63.9l20.7-33.1l-16.4-0.1l-13.5,21.5c-1.7-2.9-3.5-6-5.5-9.3L108.5,0H91.8l39.8,65.4l-22.4,35.7h16.5
		L140.8,77l4.9,8.2l31.7,52.1H194L149,63.9z"/>
	<path class="st3" d="M90.6,32c-8.9,0-17.2,3.4-23.3,9.7l-0.4,0.4l0.1,0.6c0.6,2.9,0.8,5.3,0.7,7.9c-0.2,8.8-2.9,15.8-8.4,21.8
		L59,72.9l0.2,0.6C63,88.2,76,98.4,90.7,98.4c18,0,32.6-15.1,32.6-33.6C123.3,46.4,108.9,32,90.6,32z M90.6,86
		c-11.1,0-19.7-9.3-19.7-21.1c0-11.4,8.7-20.3,19.7-20.3c11.1,0,19.7,8.9,19.7,20.3C110.4,76.7,101.7,86,90.6,86z"/>
	<path class="st4" d="M81.7,97.6"/>
	
		<linearGradient id="SVGID_1_" gradientUnits="userSpaceOnUse" x1="-2227.4319" y1="-2835.1069" x2="-2213.0664" y2="-2830.1309" gradientTransform="matrix(-0.5339 -0.8455 -0.6874 0.4341 -3000.8179 -595.507)">
		<stop  offset="0" style="stop-color:#3F2131"/>
		<stop  offset="1" style="stop-color:#4C2A3D;stop-opacity:0"/>
	</linearGradient>
	<polygon class="st5" points="132,38.9 139.8,52.3 131.6,65.4 123.6,52.2 	"/>
	<path class="st3" d="M48.6,78.7C48.6,78.7,48.6,78.6,48.6,78.7c10.7-4.5,17.5-15.6,17.5-28.8c0-11.9-5.6-21.5-15.3-26.4
		c-4.7-2.4-10-3.3-19-3.3H0V101h12.9V81.2h22.3l11.4,19.9h15L48.6,78.7z M53,49.9c0,11.4-6.8,18.8-17.3,18.8H12.9v-36h18.7
		c7.2,0,9.8,0.6,12.1,1.6C49.5,37,53,42.8,53,49.9z"/>
	
		<linearGradient id="SVGID_2_" gradientUnits="userSpaceOnUse" x1="-4150.3862" y1="-154.6053" x2="-4124.6284" y2="-154.6053" gradientTransform="matrix(-0.292 0.1768 1.173 1.9373 -865.9064 1149.8926)">
		<stop  offset="0" style="stop-color:#999999"/>
		<stop  offset="1" style="stop-color:#999999;stop-opacity:0"/>
	</linearGradient>
	<polygon class="st6" points="150.8,110.4 161.1,110.5 171.2,127.2 160.9,127.2 	"/>
</g>
</svg>
